<svg width="114" height="146" fill="none" xmlns="http://www.w3.org/2000/svg">
    <path d="M0 0v113l47.5 33L95 113V0L47.5 33 0 0z" fill="#2787BF"/>
    <circle cx="95" cy="40" r="19" fill="#fff"/>
    <path d="M101.125 45.76V48H91.073v-2.24h3.976V34.84c-.168.224-.43.467-.784.728a10.25 10.25 0 0 1-1.204.7c-.43.205-.877.383-1.344.532-.466.15-.877.224-1.232.224v-2.352c.41 0 .868-.112 1.372-.336a11.793 11.793 0 0 0 2.604-1.708c.336-.299.532-.504.588-.616h2.52V45.76h3.556z" fill="#02215B"/>
    <path d="M44.333 63.778h11v2.444h-11v-2.444zM44.333 68.667h11v2.444h-11v-2.444zM44.333 73.556h11V76h-11v-2.444zM44.333 78.444h11v2.445h-11v-2.445zM44.333 83.333h11v2.445h-11v-2.445zM39.444 63.778h2.445v2.444h-2.445v-2.444zM39.444 68.667h2.445v2.444h-2.445v-2.444zM39.444 73.556h2.445V76h-2.445v-2.444zM39.444 78.444h2.445v2.445h-2.445v-2.445zM39.444 83.333h2.445v2.445h-2.445v-2.445z" fill="#fff"/>
    <path d="M60.222 56.444H35.778a2.445 2.445 0 0 0-2.445 2.445V93.11a2.444 2.444 0 0 0 2.445 2.444h24.444a2.444 2.444 0 0 0 2.445-2.444V58.889a2.444 2.444 0 0 0-2.445-2.445zm0 36.667H35.778V58.889h24.444V93.11z" fill="#fff"/>
</svg>
