<svg width="114" height="146" fill="none" xmlns="http://www.w3.org/2000/svg">
    <path d="M0 0v113l47.5 33L95 113V0L47.5 33 0 0z" fill="#1B6AAF"/>
    <circle cx="95" cy="40" r="19" fill="#fff"/>
    <path d="M89.212 48c0-.747.056-1.447.168-2.1a6.84 6.84 0 0 1 .672-1.876c.336-.597.802-1.167 1.4-1.708.597-.56 1.372-1.101 2.324-1.624a36.72 36.72 0 0 1 1.68-.896c.578-.28 1.11-.579 1.596-.896.504-.317.905-.663 1.204-1.036a2.188 2.188 0 0 0 .056-2.576c-.243-.41-.616-.737-1.12-.98-.485-.261-1.092-.392-1.82-.392-.56 0-1.073.075-1.54.224-.448.15-.859.345-1.232.588a6.394 6.394 0 0 0-.952.728c-.261.243-.486.467-.672.672l-1.54-1.736c.15-.168.401-.392.756-.672a8.378 8.378 0 0 1 1.344-.896 9.136 9.136 0 0 1 1.876-.756 8.06 8.06 0 0 1 2.38-.336c1.157 0 2.147.205 2.968.616.84.392 1.484.933 1.932 1.624.448.672.672 1.428.672 2.268 0 .728-.159 1.363-.476 1.904a5.074 5.074 0 0 1-1.176 1.428c-.467.41-.962.765-1.484 1.064-.504.28-.962.523-1.372.728-.84.41-1.559.784-2.156 1.12a9.275 9.275 0 0 0-1.484 1.008 5.145 5.145 0 0 0-.924 1.008 4.046 4.046 0 0 0-.504 1.26h9.884V48h-12.46z" fill="#02215B"/>
    <path d="M41.125 59.958v18.334h-9.167V59.958h9.167zm-9.167-2.291a2.292 2.292 0 0 0-2.291 2.291v18.334a2.292 2.292 0 0 0 2.291 2.291h9.167a2.292 2.292 0 0 0 2.292-2.291V59.958a2.291 2.291 0 0 0-2.292-2.291h-9.167zM61.75 62.25v11.458H50.292V62.25H61.75zm-11.458-2.292A2.292 2.292 0 0 0 48 62.25v11.458A2.292 2.292 0 0 0 50.292 76H61.75a2.292 2.292 0 0 0 2.292-2.292V62.25a2.292 2.292 0 0 0-2.292-2.292H50.292zm-9.167 27.5v4.584h-4.583v-4.584h4.583zm-4.583-2.291a2.291 2.291 0 0 0-2.292 2.291v4.584a2.292 2.292 0 0 0 2.292 2.291h4.583a2.292 2.292 0 0 0 2.292-2.291v-4.584a2.291 2.291 0 0 0-2.292-2.291h-4.583zm27.5-2.292v4.583h-13.75v-4.583h13.75zm-13.75-2.292A2.292 2.292 0 0 0 48 82.875v4.583a2.292 2.292 0 0 0 2.292 2.292h13.75a2.292 2.292 0 0 0 2.291-2.292v-4.583a2.292 2.292 0 0 0-2.291-2.292h-13.75z" fill="#fff"/>
</svg>
