<svg width="114" height="146" fill="none" xmlns="http://www.w3.org/2000/svg">
    <path d="M0 0v113l47.5 33L95 113V0L47.5 33 0 0z" fill="#2787BF"/>
    <circle cx="95" cy="40" r="19" fill="#fff"/>
    <path d="M97.463 41.392c.803.13 1.494.43 2.073.896a4.448 4.448 0 0 1 1.343 1.736c.318.69.476 1.475.476 2.352 0 1.139-.28 2.137-.84 2.996-.54.877-1.316 1.55-2.323 2.016-1.008.485-2.184.728-3.528.728-1.42 0-2.67-.27-3.752-.812-1.065-.523-1.895-1.27-2.493-2.24l1.653-1.652a4.992 4.992 0 0 0 1.736 1.792c.746.448 1.698.672 2.855.672 1.288 0 2.297-.299 3.025-.896.746-.579 1.12-1.447 1.12-2.604 0-1.176-.402-2.11-1.205-2.8-.783-.71-1.931-1.064-3.444-1.064h-.728V40.44h.785c1.344 0 2.37-.327 3.08-.98.727-.653 1.091-1.465 1.091-2.436 0-.672-.158-1.223-.475-1.652a2.787 2.787 0 0 0-1.288-.952c-.542-.224-1.167-.336-1.876-.336-1.027 0-1.933.224-2.717.672a4.544 4.544 0 0 0-1.791 1.82l-1.512-1.568a5 5 0 0 1 1.428-1.652 7.483 7.483 0 0 1 2.183-1.092 8.904 8.904 0 0 1 2.66-.392c1.177 0 2.213.205 3.109.616.914.41 1.623.99 2.127 1.736.504.747.756 1.624.756 2.632 0 .728-.14 1.419-.42 2.072a4.373 4.373 0 0 1-1.231 1.624c-.523.43-1.148.71-1.877.84z" fill="#02215B"/>
    <path d="M48 56.75a19.25 19.25 0 1 0 0 38.5 19.25 19.25 0 0 0 0-38.5zm0 35.292a16.043 16.043 0 1 1 0-32.086 16.043 16.043 0 0 1 0 32.086z" fill="#fff"/>
    <path d="m45.337 85.208-8.02-8.021a1.604 1.604 0 0 1 2.261-2.262l5.76 5.76 10.875-10.877a1.604 1.604 0 0 1 2.262 2.262L45.337 85.208z" fill="#fff"/>
</svg>
