<svg width="246" height="113" fill="none" xmlns="http://www.w3.org/2000/svg">
    <path d="M0 95h213l33-47.5L213 0H0l33 47.5L0 95z" fill="#2787BF"/>
    <circle cx="123" cy="94" r="19" fill="#fff"/>
    <path d="M125.463 95.392c1.195.205 2.138.756 2.828 1.652.71.896 1.064 2.007 1.064 3.332 0 .859-.158 1.643-.476 2.352a5.044 5.044 0 0 1-1.372 1.82c-.578.504-1.278.887-2.1 1.148-.821.28-1.736.42-2.744.42-1.418 0-2.669-.271-3.752-.812-1.064-.523-1.894-1.269-2.492-2.24l1.652-1.652a4.717 4.717 0 0 0 1.736 1.792c.728.448 1.68.672 2.856.672 1.288 0 2.296-.289 3.024-.868.747-.579 1.12-1.456 1.12-2.632 0-1.176-.401-2.11-1.204-2.8-.784-.71-1.932-1.064-3.444-1.064h-.728V94.44h.784c1.344 0 2.371-.317 3.08-.952.728-.653 1.092-1.475 1.092-2.464 0-.99-.345-1.727-1.036-2.212-.69-.485-1.558-.728-2.604-.728-1.026 0-1.932.224-2.716.672a4.551 4.551 0 0 0-1.792 1.82l-1.512-1.568c.243-.467.57-.887.98-1.26a6.76 6.76 0 0 1 1.456-1.008 8.192 8.192 0 0 1 1.792-.644 9.155 9.155 0 0 1 2.044-.224c.878 0 1.68.121 2.408.364.747.243 1.382.579 1.904 1.008.542.43.952.952 1.232 1.568.299.616.448 1.297.448 2.044 0 .56-.084 1.092-.252 1.596a4.135 4.135 0 0 1-.7 1.372 3.96 3.96 0 0 1-1.12 1.036 4.11 4.11 0 0 1-1.456.532z" fill="#02215B"/>
    <path d="M123 20.75a19.253 19.253 0 0 0-17.785 11.883 19.248 19.248 0 0 0 14.03 26.247A19.25 19.25 0 1 0 123 20.75zm0 35.292a16.04 16.04 0 1 1 0-32.082 16.04 16.04 0 0 1 0 32.082z" fill="#fff"/>
    <path d="m120.337 49.208-8.021-8.021a1.606 1.606 0 0 1 2.262-2.262l5.759 5.76 10.876-10.877a1.605 1.605 0 0 1 2.262 2.262l-13.138 13.138z" fill="#fff"/>
</svg>
