<svg width="246" height="113" fill="none" xmlns="http://www.w3.org/2000/svg">
    <path d="M0 95h213l33-47.5L213 0H0l33 47.5L0 95z" fill="#2787BF"/>
    <circle cx="123" cy="94" r="19" fill="#fff"/>
    <path d="M129.125 99.76V102h-10.052v-2.24h3.976V88.84c-.168.224-.429.467-.784.728-.354.243-.756.476-1.204.7-.429.205-.877.383-1.344.532-.466.15-.877.224-1.232.224v-2.352c.411 0 .868-.112 1.372-.336a11.793 11.793 0 0 0 2.604-1.708c.336-.299.532-.504.588-.616h2.52V99.76h3.556z" fill="#02215B"/>
    <path d="M119.333 27.778h11v2.444h-11v-2.444zM119.333 32.667h11v2.444h-11v-2.444zM119.333 37.556h11V40h-11v-2.444zM119.333 42.444h11v2.445h-11v-2.445zM119.333 47.333h11v2.445h-11v-2.445zM114.445 27.778h2.444v2.444h-2.444v-2.444zM114.445 32.667h2.444v2.444h-2.444v-2.444zM114.445 37.556h2.444V40h-2.444v-2.444zM114.445 42.444h2.444v2.445h-2.444v-2.445zM114.445 47.333h2.444v2.445h-2.444v-2.445z" fill="#fff"/>
    <path d="M135.222 20.445h-24.444a2.445 2.445 0 0 0-2.445 2.444V57.11a2.446 2.446 0 0 0 2.445 2.445h24.444a2.447 2.447 0 0 0 2.445-2.445V22.89a2.446 2.446 0 0 0-2.445-2.444zm0 36.666h-24.444V22.89h24.444V57.11z" fill="#fff"/>
</svg>
