<svg width="114" height="146" fill="none" xmlns="http://www.w3.org/2000/svg">
    <path d="M0 0v113l47.5 33L95 113V0L47.5 33 0 0z" fill="#1B6AAF"/>
    <circle cx="95" cy="40" r="19" fill="#fff"/>
    <path d="M96.853 51.556v-4.732h-8.988V44.64l9.772-12.628h1.68v12.572h2.464v2.24h-2.464v4.732h-2.464zm-6.44-6.972h6.692V35.82l-6.692 8.764z" fill="#02215B"/>
    <path d="M48 56.444a19.556 19.556 0 1 0 0 39.112 19.556 19.556 0 0 0 0-39.112zm0 36.667a17.11 17.11 0 1 1 0-34.222 17.11 17.11 0 0 1 0 34.222z" fill="#fff"/>
    <path d="M39.31 73.421a2.444 2.444 0 1 0 0-4.889 2.444 2.444 0 0 0 0 4.89zM56.617 73.421a2.444 2.444 0 1 0 0-4.889 2.444 2.444 0 0 0 0 4.89zM48.159 88.479a10.596 10.596 0 0 0 10.096-7.334H38.063A10.597 10.597 0 0 0 48.16 88.48z" fill="#fff"/>
</svg>
