<svg width="246" height="113" fill="none" xmlns="http://www.w3.org/2000/svg">
    <path d="M0 95h213l33-47.5L213 0H0l33 47.5L0 95z" fill="#1B6AAF"/>
    <circle cx="123" cy="94" r="19" fill="#fff"/>
    <path d="M117.212 102c0-.747.056-1.447.168-2.1.13-.653.364-1.279.7-1.876a7.158 7.158 0 0 1 1.372-1.708c.597-.541 1.372-1.083 2.324-1.624.56-.299 1.129-.588 1.708-.868a15.25 15.25 0 0 0 1.568-.924c.485-.336.877-.69 1.176-1.064a1.97 1.97 0 0 0 .476-1.316c0-.317-.075-.635-.224-.952a2.541 2.541 0 0 0-.644-.84 3.223 3.223 0 0 0-1.064-.588c-.411-.15-.887-.224-1.428-.224-.56 0-1.074.084-1.54.252-.448.15-.85.345-1.204.588a5.284 5.284 0 0 0-.924.728 9.587 9.587 0 0 0-.644.7l-1.596-1.792c.149-.168.401-.392.756-.672a8.316 8.316 0 0 1 1.344-.896 9.113 9.113 0 0 1 1.876-.756c.709-.224 1.502-.336 2.38-.336.858 0 1.633.121 2.324.364.69.224 1.269.541 1.736.952.485.41.858.896 1.12 1.456.261.541.392 1.12.392 1.736 0 .728-.159 1.363-.476 1.904a5.82 5.82 0 0 1-1.176 1.428 8.11 8.11 0 0 1-1.456 1.064c-.523.28-.99.523-1.4.728-.411.205-.878.457-1.4.756-.504.28-.99.607-1.456.98a6.816 6.816 0 0 0-1.232 1.204 3.393 3.393 0 0 0-.644 1.456h9.548V102h-12.46z" fill="#02215B"/>
    <path d="M116.125 23.958v18.334h-9.167V23.958h9.167zm-9.167-2.291a2.292 2.292 0 0 0-2.291 2.291v18.334a2.29 2.29 0 0 0 2.291 2.291h9.167a2.293 2.293 0 0 0 2.292-2.291V23.958a2.294 2.294 0 0 0-2.292-2.291h-9.167zm29.792 4.583v11.458h-11.458V26.25h11.458zm-11.458-2.292A2.293 2.293 0 0 0 123 26.25v11.458A2.295 2.295 0 0 0 125.292 40h11.458a2.293 2.293 0 0 0 2.292-2.292V26.25a2.295 2.295 0 0 0-2.292-2.292h-11.458zm-9.167 27.5v4.584h-4.583v-4.584h4.583zm-4.583-2.291a2.293 2.293 0 0 0-2.292 2.291v4.584a2.295 2.295 0 0 0 2.292 2.291h4.583a2.293 2.293 0 0 0 2.292-2.291v-4.584a2.294 2.294 0 0 0-2.292-2.291h-4.583zm27.5-2.292v4.583h-13.75v-4.583h13.75zm-13.75-2.292A2.293 2.293 0 0 0 123 46.875v4.583a2.295 2.295 0 0 0 2.292 2.292h13.75a2.29 2.29 0 0 0 2.291-2.292v-4.583a2.29 2.29 0 0 0-2.291-2.292h-13.75z" fill="#fff"/>
</svg>
