<svg width="246" height="113" fill="none" xmlns="http://www.w3.org/2000/svg">
    <path d="M0 95h213l33-47.5L213 0H0l33 47.5L0 95z" fill="#1B6AAF"/>
    <circle cx="123" cy="94" r="19" fill="#fff"/>
    <path d="M124.853 105.556v-4.732h-8.988V98.64l9.772-12.628h1.68v12.572h2.464v2.24h-2.464v4.732h-2.464zm-6.44-6.972h6.692V89.82l-6.692 8.764z" fill="#02215B"/>
    <path d="M123 20.444a19.554 19.554 0 0 0-18.067 12.072 19.561 19.561 0 0 0 4.239 21.312 19.558 19.558 0 0 0 30.088-2.964A19.554 19.554 0 0 0 123 20.444zm0 36.667a17.11 17.11 0 1 1 0-34.221 17.11 17.11 0 0 1 0 34.221z" fill="#fff"/>
    <path d="M114.31 37.421a2.444 2.444 0 1 0 0-4.888 2.444 2.444 0 0 0 0 4.888zM131.617 37.421a2.444 2.444 0 1 0 0-4.888 2.444 2.444 0 0 0 0 4.888zM123.159 52.479a10.595 10.595 0 0 0 10.095-7.334h-20.191a10.6 10.6 0 0 0 10.096 7.334z" fill="#fff"/>
</svg>
