<svg width="66" height="66" fill="none" xmlns="http://www.w3.org/2000/svg">
    <path d="M58.667 51.333H7.333V39.087a13.016 13.016 0 0 1-3.666-2.622v14.868A3.667 3.667 0 0 0 7.333 55h51.334a3.667 3.667 0 0 0 3.666-3.667V36.465a12.355 12.355 0 0 1-3.666 2.603v12.265z" fill="#fff"/>
    <path d="M45.833 41.067a1.834 1.834 0 0 0 1.834-1.834v-10.01H44V33H25.667v3.667H44v2.566a1.833 1.833 0 0 0 1.833 1.834z" fill="#fff"/>
    <path d="M60.5 11H44V8.03a4.437 4.437 0 0 0-4.492-4.363H26.492A4.437 4.437 0 0 0 22 8.03V11H5.5a1.833 1.833 0 0 0-1.833 1.833V27.5a9.167 9.167 0 0 0 9.166 9.167h5.5v2.566a1.833 1.833 0 1 0 3.667 0v-10.01h-3.667V33h-5.5a5.5 5.5 0 0 1-5.5-5.5V14.667h51.334V27.5a5.5 5.5 0 0 1-5.5 5.5h-1.834v3.667h1.834a9.166 9.166 0 0 0 9.166-9.167V12.833A1.834 1.834 0 0 0 60.5 11zm-20.167 0H25.667V8.122a.825.825 0 0 1 .825-.789h13.035a.788.788 0 0 1 .806.77V11z" fill="#fff"/>
</svg>
