<svg width="20" height="20" viewBox="0 0 20 20" fill="none" xmlns="http://www.w3.org/2000/svg">
<path d="M9.99998 1.11111C8.24192 1.11111 6.52334 1.63243 5.06157 2.60916C3.5998 3.58588 2.46049 4.97414 1.78771 6.59837C1.11494 8.2226 0.938906 10.0099 1.28189 11.7341C1.62487 13.4584 2.47145 15.0423 3.71458 16.2854C4.95772 17.5285 6.54157 18.3751 8.26584 18.7181C9.99012 19.0611 11.7774 18.885 13.4016 18.2123C15.0258 17.5395 16.4141 16.4002 17.3908 14.9384C18.3675 13.4766 18.8889 11.7581 18.8889 10C18.8889 7.64252 17.9524 5.3816 16.2854 3.71461C14.6184 2.04761 12.3575 1.11111 9.99998 1.11111ZM9.99998 17.7778C8.46168 17.7778 6.95792 17.3216 5.67888 16.467C4.39983 15.6124 3.40293 14.3976 2.81425 12.9764C2.22557 11.5552 2.07154 9.99137 2.37165 8.48263C2.67175 6.97389 3.41252 5.58802 4.50026 4.50028C5.588 3.41254 6.97387 2.67178 8.48261 2.37167C9.99135 2.07156 11.5552 2.22559 12.9764 2.81427C14.3976 3.40295 15.6123 4.39985 16.467 5.6789C17.3216 6.95795 17.7778 8.4617 17.7778 10C17.7778 12.0628 16.9583 14.0411 15.4997 15.4997C14.0411 16.9583 12.0628 17.7778 9.99998 17.7778Z" fill="#2787BF"/>
<path d="M10.511 10.2222V5.97222C10.511 5.82488 10.4525 5.68357 10.3483 5.57939C10.2441 5.4752 10.1028 5.41667 9.95546 5.41667C9.80812 5.41667 9.66681 5.4752 9.56262 5.57939C9.45843 5.68357 9.3999 5.82488 9.3999 5.97222V10.8167L12.6777 13.0389C12.7381 13.0843 12.8071 13.1169 12.8805 13.1348C12.9539 13.1526 13.0302 13.1553 13.1047 13.1426C13.1791 13.13 13.2503 13.1022 13.3137 13.0612C13.3771 13.0201 13.4314 12.9665 13.4734 12.9037C13.5154 12.8409 13.5442 12.7702 13.5579 12.6959C13.5717 12.6216 13.5701 12.5453 13.5533 12.4716C13.5366 12.398 13.505 12.3285 13.4604 12.2675C13.4159 12.2064 13.3594 12.1551 13.2943 12.1167L10.511 10.2222Z" fill="#2787BF"/>
<path d="M4.44453 9.96667C4.43945 8.96724 4.7057 7.98518 5.21488 7.12517C5.72407 6.26517 6.4571 5.55948 7.33583 5.08334C8.21456 4.60719 9.20603 4.37845 10.2045 4.4215C11.203 4.46455 12.1712 4.77777 13.0056 5.32778L13.4779 4.57222C12.6852 4.053 11.7874 3.71578 10.8489 3.58477C9.91047 3.45377 8.95464 3.53225 8.05011 3.81456C7.14557 4.09687 6.31479 4.576 5.61744 5.21755C4.92009 5.8591 4.37348 6.64713 4.01688 7.52504C3.66029 8.40295 3.50255 9.34894 3.55501 10.295C3.60746 11.2412 3.86881 12.1639 4.32028 12.997C4.77174 13.8301 5.40212 14.5529 6.16611 15.1134C6.93011 15.6739 7.80877 16.0583 8.73897 16.2389L8.88897 15.3889C7.63785 15.1335 6.5129 14.4549 5.70342 13.4674C4.89395 12.4798 4.44938 11.2436 4.44453 9.96667Z" fill="#2787BF"/>
</svg>
