<svg width="40" height="40" fill="none" xmlns="http://www.w3.org/2000/svg">
    <path d="M18.256 18.544a7.778 7.778 0 1 1 0-15.555 7.778 7.778 0 0 1 0 15.555zm0-13.244a5.555 5.555 0 1 0 0 11.11 5.555 5.555 0 0 0 0-11.11zM24.444 19.889a28.234 28.234 0 0 0-17.91 1.855 4.51 4.51 0 0 0-2.567 4.09v6.61a1.111 1.111 0 0 0 2.222 0v-6.61a2.222 2.222 0 0 1 1.289-2.067 25.455 25.455 0 0 1 10.778-2.345 26.204 26.204 0 0 1 6.188.734v-2.267zM24.6 30.456h6.822v1.555H24.6v-1.555z" fill="#fff"/>
    <path d="M36.855 23.856h-5.744v2.222h4.633v9.3H20v-9.3h7v.466a1.111 1.111 0 0 0 2.222 0v-4.322a1.11 1.11 0 1 0-2.222 0v1.634h-8.111a1.111 1.111 0 0 0-1.111 1.11V36.49a1.111 1.111 0 0 0 1.11 1.111h17.967a1.111 1.111 0 0 0 1.112-1.111V24.967a1.111 1.111 0 0 0-1.112-1.111z" fill="#fff"/>
</svg>
