<svg width="16" height="16" fill="none" xmlns="http://www.w3.org/2000/svg">
    <path d="M13.991 12.662a.442.442 0 0 0-.613-.142 5.335 5.335 0 0 1-7.845-2.742h5.205a.445.445 0 0 0 0-.89H5.302a4.96 4.96 0 0 1 0-1.777h5.436a.445.445 0 0 0 0-.889H5.533a5.333 5.333 0 0 1 7.827-2.755.445.445 0 0 0 .471-.756 6.222 6.222 0 0 0-9.235 3.511H1.573a.444.444 0 0 0 0 .89h2.831a6.222 6.222 0 0 0-.07.888c.002.298.026.595.07.889h-2.83a.444.444 0 1 0 0 .889h3.022a6.222 6.222 0 0 0 9.257 3.497.444.444 0 0 0 .138-.613z" fill="#2787BF"/>
</svg>
