<svg width="24" height="24" viewBox="0 0 24 24" fill="none" xmlns="http://www.w3.org/2000/svg">
<path d="M22 2.66675H2.00004C1.82323 2.66675 1.65366 2.73699 1.52864 2.86201C1.40361 2.98703 1.33337 3.1566 1.33337 3.33341V4.44675C1.3335 4.60421 1.36478 4.76008 1.42543 4.90539C1.48607 5.0507 1.57487 5.18258 1.68671 5.29341L9.33337 13.0534V19.8534L10.6667 20.3601V12.6667C10.6672 12.579 10.6504 12.492 10.6172 12.4108C10.584 12.3296 10.5352 12.2557 10.4734 12.1934L2.66671 4.39341V4.00008H21.3334V4.40675L13.5534 12.1934C13.4868 12.2535 13.4329 12.3263 13.3951 12.4077C13.3573 12.489 13.3363 12.5771 13.3334 12.6667V21.4734L14.6667 22.0001V13.0001L22.3134 5.33341C22.427 5.21977 22.5168 5.08456 22.5775 4.93573C22.6382 4.78691 22.6685 4.62746 22.6667 4.46675V3.33341C22.6667 3.1566 22.5965 2.98703 22.4714 2.86201C22.3464 2.73699 22.1769 2.66675 22 2.66675V2.66675Z" fill="white"/>
</svg>
