<svg width="58" height="58" viewBox="0 0 58 58" fill="none" xmlns="http://www.w3.org/2000/svg">
<path d="M29.0004 3.22223C23.9021 3.22223 18.9182 4.73407 14.6791 7.56657C10.4399 10.3991 7.13594 14.425 5.18488 19.1353C3.23383 23.8456 2.72334 29.0286 3.71798 34.029C4.71262 39.0294 7.16772 43.6226 10.7728 47.2276C14.3779 50.8327 18.9711 53.2878 23.9715 54.2825C28.9719 55.2771 34.1549 54.7666 38.8652 52.8156C43.5754 50.8645 47.6014 47.5605 50.4339 43.3214C53.2664 39.0822 54.7782 34.0984 54.7782 29C54.7782 22.1633 52.0624 15.6066 47.2281 10.7724C42.3938 5.93809 35.8371 3.22223 29.0004 3.22223ZM29.0004 51.5556C24.5394 51.5556 20.1785 50.2327 16.4693 47.7543C12.76 45.2758 9.86901 41.7531 8.16183 37.6316C6.45465 33.5102 6.00798 28.975 6.87829 24.5996C7.7486 20.2243 9.89681 16.2053 13.0513 13.0508C16.2057 9.89637 20.2247 7.74816 24.6001 6.87785C28.9754 6.00754 33.5106 6.45421 37.6321 8.16139C41.7536 9.86857 45.2763 12.7596 47.7547 16.4688C50.2331 20.1781 51.556 24.5389 51.556 29C51.556 34.9821 49.1796 40.7192 44.9496 44.9492C40.7196 49.1792 34.9826 51.5556 29.0004 51.5556Z" fill="white"/>
<path d="M17.5445 25.6005C19.3241 25.6005 20.7667 24.1579 20.7667 22.3783C20.7667 20.5987 19.3241 19.1561 17.5445 19.1561C15.7649 19.1561 14.3223 20.5987 14.3223 22.3783C14.3223 24.1579 15.7649 25.6005 17.5445 25.6005Z" fill="white"/>
<path d="M40.358 25.6005C42.1375 25.6005 43.5802 24.1579 43.5802 22.3783C43.5802 20.5987 42.1375 19.1561 40.358 19.1561C38.5784 19.1561 37.1357 20.5987 37.1357 22.3783C37.1357 24.1579 38.5784 25.6005 40.358 25.6005Z" fill="white"/>
<path d="M29.2091 45.4494C32.1647 45.4533 35.0454 44.5196 37.4367 42.7826C39.828 41.0455 41.6067 38.5947 42.5169 35.7828H15.9014C16.8116 38.5947 18.5903 41.0455 20.9816 42.7826C23.3729 44.5196 26.2535 45.4533 29.2091 45.4494Z" fill="white"/>
</svg>
