<svg width="29" height="28" viewBox="0 0 29 28" fill="none" xmlns="http://www.w3.org/2000/svg">
<path d="M26.7189 13.448L15.0522 1.78135C14.9065 1.63649 14.7094 1.55518 14.5039 1.55518C14.2984 1.55518 14.1013 1.63649 13.9556 1.78135L2.28889 13.448C2.16147 13.5968 2.09489 13.7882 2.10245 13.9839C2.11001 14.1797 2.19116 14.3654 2.32967 14.5039C2.46819 14.6424 2.65388 14.7236 2.84963 14.7311C3.04537 14.7387 3.23677 14.6721 3.38556 14.5447L14.5 3.43024L25.6144 14.5525C25.7632 14.6799 25.9546 14.7465 26.1504 14.7389C26.3461 14.7313 26.5318 14.6502 26.6703 14.5117C26.8088 14.3732 26.89 14.1875 26.8976 13.9917C26.9051 13.796 26.8385 13.6046 26.7111 13.4558L26.7189 13.448Z" fill="#BDBDBD"/>
<path d="M22.2778 24.889H18.3889V17.1113H10.6111V24.889H6.72224V14.0001L5.16669 15.5557V24.889C5.16669 25.3016 5.33058 25.6973 5.6223 25.989C5.91402 26.2807 6.30968 26.4446 6.72224 26.4446H12.1667V18.6668H16.8334V26.4446H22.2778C22.6904 26.4446 23.086 26.2807 23.3777 25.989C23.6695 25.6973 23.8334 25.3016 23.8334 24.889V15.369L22.2778 13.8135V24.889Z" fill="#BDBDBD"/>
</svg>
