<svg width="44" height="44" fill="none" xmlns="http://www.w3.org/2000/svg">
    <path d="M15.125 5.958v18.334H5.958V5.958h9.167zM5.958 3.667a2.292 2.292 0 0 0-2.291 2.291v18.334a2.292 2.292 0 0 0 2.291 2.291h9.167a2.292 2.292 0 0 0 2.292-2.291V5.958a2.292 2.292 0 0 0-2.292-2.291H5.958zM35.75 8.25v11.458H24.292V8.25H35.75zM24.292 5.958A2.292 2.292 0 0 0 22 8.25v11.458A2.291 2.291 0 0 0 24.292 22H35.75a2.292 2.292 0 0 0 2.292-2.292V8.25a2.292 2.292 0 0 0-2.292-2.292H24.292zm-9.167 27.5v4.584h-4.583v-4.584h4.583zm-4.583-2.291a2.292 2.292 0 0 0-2.292 2.291v4.584a2.292 2.292 0 0 0 2.292 2.291h4.583a2.292 2.292 0 0 0 2.292-2.291v-4.584a2.292 2.292 0 0 0-2.292-2.291h-4.583zm27.5-2.292v4.583h-13.75v-4.583h13.75zm-13.75-2.292A2.292 2.292 0 0 0 22 28.875v4.583a2.291 2.291 0 0 0 2.292 2.292h13.75a2.291 2.291 0 0 0 2.291-2.292v-4.583a2.292 2.292 0 0 0-2.291-2.292h-13.75z" fill="#fff"/>
</svg>
