<svg width="66" height="66" fill="none" xmlns="http://www.w3.org/2000/svg">
    <path d="M27.5 14.667H44v3.666H27.5v-3.666zM27.5 22H44v3.667H27.5V22zM27.5 29.333H44V33H27.5v-3.667zM27.5 36.667H44v3.666H27.5v-3.666zM27.5 44H44v3.667H27.5V44zM20.167 14.667h3.666v3.666h-3.666v-3.666zM20.167 22h3.666v3.667h-3.666V22zM20.167 29.333h3.666V33h-3.666v-3.667zM20.167 36.667h3.666v3.666h-3.666v-3.666zM20.167 44h3.666v3.667h-3.666V44z" fill="#fff"/>
    <path d="M51.333 3.667H14.667A3.667 3.667 0 0 0 11 7.333v51.334a3.667 3.667 0 0 0 3.667 3.666h36.666A3.667 3.667 0 0 0 55 58.667V7.333a3.667 3.667 0 0 0-3.667-3.666zm0 55H14.667V7.333h36.666v51.334z" fill="#fff"/>
</svg>
