<svg width="29" height="28" viewBox="0 0 29 28" fill="none" xmlns="http://www.w3.org/2000/svg">
<path d="M26.6256 4.8147C26.5301 4.73707 26.4176 4.6832 26.2972 4.65751C26.1769 4.63182 26.0522 4.63505 25.9333 4.66693L18.4589 7.00026L10.9689 3.19693C10.8665 3.14954 10.755 3.125 10.6422 3.125C10.5294 3.125 10.4179 3.14954 10.3156 3.19693L2.53777 6.37804C2.39451 6.43689 2.27208 6.53717 2.18617 6.66604C2.10026 6.79491 2.05478 6.94649 2.05555 7.10137V23.0303C2.05619 23.1576 2.0881 23.2829 2.14849 23.3951C2.20888 23.5073 2.29589 23.6029 2.40189 23.6735C2.50788 23.7442 2.62961 23.7877 2.75637 23.8003C2.88313 23.813 3.01105 23.7942 3.12889 23.7458L10.6111 20.6736L18.07 24.5003C18.1807 24.557 18.3034 24.5863 18.4278 24.5858C18.5051 24.5975 18.5838 24.5975 18.6611 24.5858L26.4389 22.1591C26.6028 22.1078 26.7451 22.0037 26.8435 21.863C26.942 21.7223 26.9912 21.5529 26.9833 21.3814V5.4447C26.9793 5.31854 26.9446 5.19526 26.8823 5.0855C26.8199 4.97574 26.7318 4.8828 26.6256 4.8147V4.8147ZM25.3889 20.8058L18.9178 22.828V21.0469H17.6733V22.6025L11.14 19.2503V17.9358H9.89555V19.2736L3.61111 21.8636V7.6147L9.89555 5.0247V6.85248H11.14V5.03248L17.6733 8.37693V10.0103H18.9178V8.55581L25.3889 6.50248V20.8058Z" fill="#BDBDBD"/>
<path d="M17.6733 11.7134H18.9178V14.6767H17.6733V11.7134Z" fill="#BDBDBD"/>
<path d="M17.6733 16.3799H18.9178V19.3432H17.6733V16.3799Z" fill="#BDBDBD"/>
<path d="M9.89557 8.60205H11.14V11.5654H9.89557V8.60205Z" fill="#BDBDBD"/>
<path d="M9.89557 13.3232H11.14V16.2399H9.89557V13.3232Z" fill="#BDBDBD"/>
</svg>
