<svg width="40" height="40" fill="none" xmlns="http://www.w3.org/2000/svg">
    <path d="M20 7.467A6.367 6.367 0 1 0 20 20.2a6.367 6.367 0 0 0 0-12.734zm0 10.51a4.145 4.145 0 1 1 4.144-4.144A4.144 4.144 0 0 1 20 17.967v.01z" fill="#fff"/>
    <path d="M20 2.222A13.1 13.1 0 0 0 6.911 15.256c0 5.189 2.911 9.533 5.045 12.7l.389.577c2.122 3.077 4.399 6.043 6.822 8.89l.844.988.845-.989a110.9 110.9 0 0 0 6.822-8.889l.389-.588c2.122-3.167 5.033-7.5 5.033-12.69A13.1 13.1 0 0 0 20 2.223zm6.211 24.445-.4.589C23.9 30.122 21.367 33.333 20 34.922c-1.311-1.589-3.9-4.8-5.811-7.666l-.389-.59c-1.967-2.933-4.667-6.944-4.667-11.455a10.867 10.867 0 0 1 21.734 0c0 4.556-2.69 8.567-4.656 11.456z" fill="#fff"/>
</svg>
