<svg width="66" height="66" fill="none" xmlns="http://www.w3.org/2000/svg">
    <path d="M33 12.32a10.505 10.505 0 1 0 0 21.01 10.505 10.505 0 0 0 0-21.01zm0 17.343a6.838 6.838 0 1 1 6.838-6.838A6.838 6.838 0 0 1 33 29.645v.018z" fill="#fff"/>
    <path d="M33 3.667a21.615 21.615 0 0 0-21.597 21.505c0 8.561 4.804 15.73 8.324 20.955l.641.953a182.617 182.617 0 0 0 11.257 14.667l1.393 1.631 1.394-1.631A183.014 183.014 0 0 0 45.668 47.08l.642-.972c3.502-5.225 8.305-12.375 8.305-20.936A21.615 21.615 0 0 0 33 3.667zM43.248 44l-.66.972C39.435 49.702 35.255 55 33 57.622c-2.163-2.622-6.435-7.92-9.588-12.65L22.77 44c-3.245-4.84-7.7-11.458-7.7-18.902A17.932 17.932 0 0 1 39.861 8.533 17.93 17.93 0 0 1 50.93 25.098c0 7.517-4.437 14.135-7.682 18.902z" fill="#fff"/>
</svg>
