<svg width="29" height="28" viewBox="0 0 29 28" fill="none" xmlns="http://www.w3.org/2000/svg">
<path d="M14.5 5.22656C13.6186 5.22656 12.7569 5.48794 12.024 5.97765C11.2911 6.46735 10.7199 7.16339 10.3826 7.97774C10.0453 8.79209 9.95701 9.68817 10.129 10.5527C10.3009 11.4172 10.7254 12.2113 11.3487 12.8346C11.9719 13.4578 12.766 13.8823 13.6306 14.0543C14.4951 14.2262 15.3911 14.138 16.2055 13.8007C17.0198 13.4633 17.7159 12.8921 18.2056 12.1592C18.6953 11.4263 18.9567 10.5647 18.9567 9.68323C18.9567 8.50125 18.4871 7.36768 17.6513 6.53189C16.8156 5.6961 15.682 5.22656 14.5 5.22656V5.22656ZM14.5 12.5843C13.9262 12.5843 13.3653 12.4142 12.8882 12.0954C12.4111 11.7766 12.0393 11.3235 11.8197 10.7934C11.6001 10.2633 11.5427 9.68001 11.6546 9.11725C11.7666 8.55449 12.0429 8.03756 12.4486 7.63183C12.8543 7.22611 13.3713 6.9498 13.934 6.83786C14.4968 6.72592 15.0801 6.78337 15.6102 7.00295C16.1403 7.22253 16.5934 7.59437 16.9122 8.07146C17.231 8.54854 17.4011 9.10944 17.4011 9.68323C17.3991 10.4513 17.0925 11.1872 16.5487 11.7296C16.0048 12.272 15.2681 12.5766 14.5 12.5766V12.5843Z" fill="#BDBDBD"/>
<path d="M14.5 1.55566C12.0774 1.55769 9.75398 2.51831 8.03729 4.22772C6.32059 5.93712 5.3501 8.2564 5.33777 10.679C5.33777 14.3112 7.37555 17.3523 8.86888 19.569L9.1411 19.9734C10.6269 22.1268 12.2208 24.2036 13.9167 26.1957L14.5078 26.8879L15.0989 26.1957C16.7946 24.2034 18.3884 22.1267 19.8744 19.9734L20.1467 19.5612C21.6322 17.3446 23.67 14.3112 23.67 10.679C23.6577 8.25506 22.6861 5.9346 20.9677 4.22497C19.2493 2.51535 16.924 1.55563 14.5 1.55566V1.55566ZM18.8478 18.6668L18.5678 19.079C17.23 21.0857 15.4567 23.3334 14.5 24.4457C13.5822 23.3334 11.77 21.0857 10.4322 19.079L10.16 18.6668C8.78332 16.6134 6.89332 13.8057 6.89332 10.6479C6.89332 9.64896 7.09008 8.65982 7.47235 7.73694C7.85462 6.81406 8.41492 5.97551 9.12127 5.26916C9.82761 4.56282 10.6662 4.00251 11.589 3.62024C12.5119 3.23797 13.5011 3.04122 14.5 3.04122C15.4989 3.04122 16.4881 3.23797 17.4109 3.62024C18.3338 4.00251 19.1724 4.56282 19.8787 5.26916C20.5851 5.97551 21.1454 6.81406 21.5276 7.73694C21.9099 8.65982 22.1067 9.64896 22.1067 10.6479C22.1067 13.8368 20.2244 16.6446 18.8478 18.6668V18.6668Z" fill="#BDBDBD"/>
</svg>
