<svg width="29" height="28" viewBox="0 0 29 28" fill="none" xmlns="http://www.w3.org/2000/svg">
<path d="M21.2812 3.71875H7.71875C6.84881 3.71973 6.01478 4.06575 5.39964 4.68089C4.7845 5.29603 4.43848 6.13006 4.4375 7V23.625C4.43796 24.031 4.59944 24.4202 4.8865 24.7072C5.17357 24.9943 5.56278 25.1558 5.96875 25.1562H8.59375C8.99972 25.1558 9.38893 24.9943 9.676 24.7072C9.96306 24.4202 10.1245 24.031 10.125 23.625V21.6562H18.875V23.625C18.8755 24.031 19.0369 24.4202 19.324 24.7072C19.6111 24.9943 20.0003 25.1558 20.4062 25.1562H23.0312C23.4372 25.1558 23.8264 24.9943 24.1135 24.7072C24.4006 24.4202 24.562 24.031 24.5625 23.625V7C24.5615 6.13006 24.2155 5.29603 23.6004 4.68089C22.9852 4.06575 22.1512 3.71973 21.2812 3.71875V3.71875ZM5.75 20.3438V13.7812H23.25V20.3438H5.75ZM5.75 8.53125H23.25V12.4688H5.75V8.53125ZM7.71875 5.03125H21.2812C21.8032 5.03183 22.3036 5.23944 22.6727 5.60852C23.0418 5.97761 23.2494 6.47803 23.25 7V7.21875H5.75V7C5.75058 6.47803 5.95819 5.97761 6.32727 5.60852C6.69636 5.23944 7.19678 5.03183 7.71875 5.03125ZM8.8125 23.625C8.81241 23.683 8.78934 23.7386 8.74833 23.7796C8.70733 23.8206 8.65174 23.8437 8.59375 23.8438H5.96875C5.91076 23.8437 5.85517 23.8206 5.81417 23.7796C5.77316 23.7386 5.75009 23.683 5.75 23.625V21.6562H8.8125V23.625ZM23.0312 23.8438H20.4062C20.3483 23.8437 20.2927 23.8206 20.2517 23.7796C20.2107 23.7386 20.1876 23.683 20.1875 23.625V21.6562H23.25V23.625C23.2499 23.683 23.2268 23.7386 23.1858 23.7796C23.1448 23.8206 23.0892 23.8437 23.0312 23.8438V23.8438ZM10.7812 17.0625C10.7812 17.2788 10.7171 17.4903 10.5969 17.6702C10.4767 17.85 10.3059 17.9902 10.1061 18.073C9.9062 18.1558 9.68629 18.1774 9.47412 18.1352C9.26195 18.093 9.06707 17.9889 8.9141 17.8359C8.76114 17.6829 8.65697 17.488 8.61477 17.2759C8.57256 17.0637 8.59422 16.8438 8.67701 16.6439C8.75979 16.4441 8.89998 16.2733 9.07985 16.1531C9.25971 16.0329 9.47118 15.9688 9.6875 15.9688C9.97747 15.9691 10.2555 16.0844 10.4605 16.2895C10.6656 16.4945 10.7809 16.7725 10.7812 17.0625ZM20.4062 17.0625C20.4062 17.2788 20.3421 17.4903 20.2219 17.6702C20.1017 17.85 19.9309 17.9902 19.7311 18.073C19.5312 18.1558 19.3113 18.1774 19.0991 18.1352C18.887 18.093 18.6921 17.9889 18.5391 17.8359C18.3861 17.6829 18.282 17.488 18.2398 17.2759C18.1976 17.0637 18.2192 16.8438 18.302 16.6439C18.3848 16.4441 18.525 16.2733 18.7048 16.1531C18.8847 16.0329 19.0962 15.9688 19.3125 15.9688C19.6025 15.9691 19.8805 16.0844 20.0855 16.2895C20.2906 16.4945 20.4059 16.7725 20.4062 17.0625V17.0625Z" fill="#BDBDBD"/>
</svg>
