<svg width="66" height="66" fill="none" xmlns="http://www.w3.org/2000/svg">
    <path d="M32.817 31.717c4.95 0 8.8-4.034 8.8-8.984s-4.034-8.8-8.984-8.8-8.8 4.034-8.8 8.8c0 4.95 4.034 8.984 8.984 8.984zM32.633 17.6c.184 0 .184 0 0 0a5.32 5.32 0 0 1 5.317 5.317c0 2.933-2.383 5.133-5.317 5.133-2.933 0-5.133-2.383-5.133-5.133 0-2.934 2.383-5.317 5.133-5.317zM59.95 30.617c-3.483-3.117-8.067-4.767-12.833-4.584H45.65c-.367 1.467-.917 2.75-1.65 3.85 1.1-.183 2.017-.183 3.117-.183 3.483-.183 6.966.917 9.716 2.933v13.2H60.5V31.167l-.55-.55zM42.9 14.3c.917-2.2 3.483-3.3 5.867-2.383 2.2.916 3.3 3.483 2.383 5.866-.733 1.65-2.383 2.75-4.033 2.75-.367 0-.917 0-1.284-.183.184.917.184 1.833.184 2.567v1.1c.366 0 .733.183 1.1.183 4.583 0 8.25-3.667 8.25-8.067 0-4.583-3.667-8.25-8.067-8.25-2.933 0-5.5 1.467-6.967 4.034.917.55 1.834 1.283 2.567 2.383zM22 30.067c-.733-1.1-1.283-2.384-1.65-3.85h-1.467a18.864 18.864 0 0 0-12.833 4.4l-.55.55v14.666h3.667v-13.2c2.933-2.016 6.233-3.116 9.716-2.933 1.1 0 2.2.183 3.117.367zM18.883 24.017c.367 0 .734 0 1.1-.184v-1.1c0-.916 0-1.833.184-2.566-.367.183-.917.183-1.284.183-2.383 0-4.4-2.017-4.4-4.4 0-2.383 2.017-4.4 4.4-4.4 1.834 0 3.484 1.1 4.217 2.75.733-.917 1.833-1.833 2.75-2.567-2.383-3.85-7.333-5.133-11.183-2.75-3.85 2.384-5.134 7.334-2.75 11.184 1.466 2.383 4.033 3.85 6.966 3.85zM47.85 41.617l-.367-.55c-3.666-4.034-8.8-6.417-14.3-6.234-5.5-.183-10.816 2.2-14.483 6.234l-.367.55V55.55c0 1.65 1.284 3.117 3.117 3.117h23.467c1.65 0 3.116-1.467 3.116-3.117V41.617h-.183zM44.183 55H22V42.9c2.933-2.933 6.967-4.4 11.183-4.4 4.034-.183 8.067 1.467 11 4.4V55z" fill="#fff"/>
</svg>
