<svg width="29" height="28" viewBox="0 0 29 28" fill="none" xmlns="http://www.w3.org/2000/svg">
<path d="M14.5 13.2224C15.5768 13.2224 16.6295 12.9031 17.5248 12.3048C18.4201 11.7066 19.118 10.8563 19.53 9.86144C19.9421 8.8666 20.0499 7.7719 19.8398 6.71578C19.6298 5.65967 19.1112 4.68956 18.3498 3.92814C17.5884 3.16672 16.6183 2.64819 15.5622 2.43811C14.5061 2.22804 13.4114 2.33586 12.4165 2.74793C11.4217 3.16001 10.5714 3.85784 9.97313 4.75317C9.37488 5.64851 9.05557 6.70113 9.05557 7.77794C9.05557 9.2219 9.62918 10.6067 10.6502 11.6277C11.6712 12.6488 13.0561 13.2224 14.5 13.2224ZM14.5 3.88905C15.2692 3.88905 16.021 4.11713 16.6606 4.54445C17.3001 4.97177 17.7985 5.57913 18.0929 6.28973C18.3872 7.00033 18.4642 7.78226 18.3142 8.53663C18.1641 9.291 17.7937 9.98393 17.2499 10.5278C16.706 11.0717 16.0131 11.4421 15.2587 11.5921C14.5043 11.7422 13.7224 11.6651 13.0118 11.3708C12.3012 11.0765 11.6938 10.578 11.2665 9.93849C10.8392 9.29897 10.6111 8.54709 10.6111 7.77794C10.6111 6.74655 11.0208 5.75739 11.7502 5.02808C12.4795 4.29878 13.4686 3.88905 14.5 3.88905V3.88905Z" fill="#BDBDBD"/>
<path d="M24.1989 18.9546C22.9516 17.6363 21.4485 16.5862 19.7815 15.8686C18.1146 15.1509 16.3188 14.7808 14.5039 14.7808C12.689 14.7808 10.8932 15.1509 9.22624 15.8686C7.55929 16.5862 6.0562 17.6363 4.80889 18.9546C4.53846 19.2435 4.38827 19.6245 4.38889 20.0202V24.1113C4.38889 24.5238 4.55278 24.9195 4.8445 25.2112C5.13622 25.503 5.53188 25.6668 5.94444 25.6668H23.0556C23.4681 25.6668 23.8638 25.503 24.1555 25.2112C24.4472 24.9195 24.6111 24.5238 24.6111 24.1113V20.0202C24.6138 19.6256 24.4665 19.2447 24.1989 18.9546V18.9546ZM23.0556 24.1113H5.94444V20.0124C7.04673 18.8517 8.37367 17.9274 9.8445 17.2958C11.3153 16.6642 12.8993 16.3385 14.5 16.3385C16.1007 16.3385 17.6847 16.6642 19.1555 17.2958C20.6263 17.9274 21.9533 18.8517 23.0556 20.0124V24.1113Z" fill="#BDBDBD"/>
</svg>
